<svg xmlns="http://www.w3.org/2000/svg" fill="none" viewBox="0 0 142 33">
  <path fill="#fff" d="M0 6.73727V32.6084h3.75838V13.8746h.24289l7.72133 18.6959h3.1192l7.7213-18.6833h.2429v18.7212h3.7583V6.73727h-4.7938L13.4356 26.848h-.3068L4.79385 6.73727H0ZM41.1313 33c4.2825 0 7.3122-2.0843 8.1815-5.2424l-3.6178-.6443c-.6903 1.8317-2.3522 2.7665-4.5254 2.7665-3.2726 0-5.4714-2.097-5.5736-5.8362h13.9597v-1.339c0-7.011-4.2442-9.7522-8.6929-9.7522-5.4714 0-9.0764 4.1182-9.0764 10.0806 0 6.0257 3.5539 9.967 9.3449 9.967Zm-5.5225-11.786c.1534-2.7539 2.1732-5.1414 5.2796-5.1414 2.9658 0 4.9089 2.1728 4.9217 5.1414H35.6088Zm32.9018-3.2718c-.7926-3.0191-3.1831-4.9898-7.4273-4.9898-4.4359 0-7.5807 2.3117-7.5807 5.7477 0 2.7539 1.6874 4.5856 5.3691 5.3941l3.3238.72c1.8919.4169 2.774 1.2506 2.774 2.4633 0 1.5033-1.6235 2.6781-4.1291 2.6781-2.2883 0-3.7584-.9727-4.2186-2.8802l-3.6945.5558C53.5665 31.0672 56.4556 33 60.866 33c4.7427 0 8.0281-2.4886 8.0281-6.0004 0-2.7412-1.7642-4.434-5.3691-5.2551l-3.1192-.7074c-2.1605-.5053-3.0937-1.2253-3.0809-2.5391-.0128-1.4906 1.6235-2.5517 3.7967-2.5517 2.3778 0 3.4772 1.3011 3.9246 2.6023l3.4644-.6064Zm13.7519-4.7371h-4.0268V8.55633h-3.8223v4.64877h-2.8763v3.0317h2.8763v11.4576c-.0128 3.5244 2.7101 5.2298 5.7271 5.1666 1.2144-.0126 2.0326-.24 2.48-.4042l-.6903-3.1202c-.2557.0505-.7287.1642-1.3423.1642-1.24 0-2.3522-.4042-2.3522-2.5896V16.2368h4.0268v-3.0317ZM94.5508 33c5.5352 0 9.1532-4.0045 9.1532-10.0048 0-6.0383-3.618-10.0428-9.1532-10.0428-5.5353 0-9.1531 4.0045-9.1531 10.0428C85.3977 28.9955 89.0155 33 94.5508 33Zm.0128-3.1707c-3.6178 0-5.3052-3.1202-5.3052-6.8468 0-3.7139 1.6874-6.872 5.3052-6.872 3.5922 0 5.2796 3.1581 5.2796 6.872 0 3.7266-1.6874 6.8468-5.2796 6.8468ZM107.176 8.8932h1.057V5.52456h1.909c.077 0 .149 0 .222-.00421l1.841 3.37285h1.227l-1.973-3.56233c1.112-.37476 1.632-1.27166 1.632-2.417 0-1.52431-.92-2.644379-2.966-2.644379h-2.949V8.8932Zm1.057-4.31186V1.19587h1.858c1.415 0 1.96.68214 1.96 1.718s-.545 1.66747-1.943 1.66747h-1.875Zm10.607 1.66748c0 1.21271-.937 1.76853-1.687 1.76853-.835 0-1.432-.60635-1.432-1.54957V2.42542h-1.005v4.10973c0 1.65064.886 2.44226 2.113 2.44226.989 0 1.636-.52213 1.943-1.17902h.068V8.8932h1.006V2.42542h-1.006v3.8234Zm7.484-2.37489c-.315-.91795-1.023-1.53273-2.318-1.53273-1.381 0-2.403.77479-2.403 1.86959 0 .89269.537 1.49063 1.738 1.76854l1.091.25265c.661.15159.972.46318.972.90953 0 .55582-.597 1.01059-1.534 1.01059-.823 0-1.338-.3495-1.517-1.04428l-.955.23581c.235 1.09901 1.151 1.68432 2.489 1.68432 1.521 0 2.556-.82111 2.556-1.93697 0-.90111-.571-1.46957-1.738-1.75169l-.972-.23581c-.775-.18948-1.125-.44634-1.125-.94321 0-.55583.597-.96007 1.398-.96007.878 0 1.24.48003 1.415.92638l.903-.25265Zm6.269 0c-.315-.91795-1.022-1.53273-2.318-1.53273-1.38 0-2.403.77479-2.403 1.86959 0 .89269.537 1.49063 1.739 1.76854l1.09.25265c.661.15159.972.46318.972.90953 0 .55582-.597 1.01059-1.534 1.01059-.822 0-1.338-.3495-1.517-1.04428l-.955.23581c.235 1.09901 1.151 1.68432 2.489 1.68432 1.521 0 2.557-.82111 2.557-1.93697 0-.90111-.571-1.46957-1.739-1.75169l-.971-.23581c-.776-.18948-1.125-.44634-1.125-.94321 0-.55583.596-.96007 1.397-.96007.878 0 1.24.48003 1.415.92638l.903-.25265Zm1.634 5.01927h1.005V2.42542h-1.005V8.8932Zm.511-7.54575c.392 0 .716-.30317.716-.673723C135.454.303177 135.13 0 134.738 0c-.392 0-.716.303177-.716.673727 0 .370553.324.673723.716.673723ZM139 9.04479c1.142 0 1.739-.60636 1.943-1.02744h.051v.87585H142V4.63187c0-2.05486-1.585-2.29067-2.42-2.29067-.989 0-2.114.33687-2.625 1.51589l.954.33686c.222-.47161.746-.9769 1.705-.9769.924 0 1.38.48424 1.38 1.31377v.03368c0 .48003-.494.43792-1.687.58951-1.215.1558-2.54.42108-2.54 1.90328 0 1.26324.989 1.9875 2.233 1.9875Zm.154-.89269c-.802 0-1.381-.35371-1.381-1.04428 0-.75794.699-.99375 1.483-1.0948.426-.05053 1.568-.16844 1.738-.37055V6.552c0 .80847-.647 1.6001-1.84 1.6001Z"/>
</svg>
