<svg xmlns="http://www.w3.org/2000/svg" fill="none" viewBox="0 0 22 19">
  <path fill="#000" d="M20.2991 9.78586c2.2679-2.24248 2.2679-5.88373 0-8.104-2.268-2.242479-5.9505-2.242479-8.2185 0L10.9804 2.792 9.88007 1.70406C7.61215-.560619 3.92957-.560619 1.6841 1.68186.583822 2.76979 0 4.21297 0 5.74496c0 1.53199.606277 2.97517 1.6841 4.0631L10.9804 19l9.3187-9.21414Zm-18.862-4.0409c0-1.15454.4491-2.22027 1.27992-3.01957.85328-.84371 1.95356-1.26556 3.05384-1.26556 1.10028 0 2.20056.42185 3.05384 1.26556l2.1557 2.10926 2.1556-2.13147c1.6841-1.6652 4.446-1.6652 6.1077 0 .8084.7993 1.2799 1.86503 1.2799 3.01958 0 1.15454-.4491 2.22027-1.2799 3.01957l-8.2633 8.19277-8.26338-8.17057C1.90865 7.94303 1.4371 6.8773 1.4371 5.74496Z"/>
</svg>
